<?xml version="1.0" encoding="UTF-8"?>
<svg id="Layer_1" data-name="Layer 1" xmlns="http://www.w3.org/2000/svg" viewBox="0 0 488.68 488.68">
  <defs>
    <style>
      .cls-1 {
        fill: #fff;
      }

      .cls-2, .cls-3 {
        fill: #333;
      }

      .cls-4, .cls-5 {
        fill: #aa1f28;
      }

      .cls-5 {
        stroke: #aa1f28;
      }

      .cls-5, .cls-3 {
        stroke-miterlimit: 10;
        stroke-width: 4px;
      }

      .cls-3 {
        stroke: #333;
      }

      .cls-6 {
        fill: #cd2130;
      }
    </style>
  </defs>
  <circle class="cls-1" cx="244.34" cy="244.34" r="244.34"/>
  <g>
    <circle class="cls-4" cx="338.69" cy="167.91" r="14.21"/>
    <circle class="cls-4" cx="374.03" cy="95.4" r="14.21"/>
    <circle class="cls-2" cx="257.41" cy="103.44" r="21.23"/>
    <polygon class="cls-3" points="386.37 376.29 386.37 392 84.42 392 84.42 103.44 100.13 103.44 100.13 376.29 386.37 376.29"/>
    <polygon class="cls-6" points="441.03 270.35 424.71 286.63 424.71 364.03 393.01 364.03 393.01 344.32 405 344.32 405 278.48 413.12 270.35 405 262.23 405 196.33 393.01 196.33 393.01 176.62 424.71 176.62 424.71 254.02 441.03 270.35"/>
    <path class="cls-5" d="m374.38,194.34h11.99v-15.7h-27.7v21.41c-5.91,2.72-11.31,3.82-16.07,4.14-42.15,3.09-57.91-56.5-111.16-57.28-35.81-.42-51.57,26.39-88.22,18.22-10.84-2.46-20.05-7.17-27.64-12.51v209.43h270.79v-15.71h-11.99v-67.02l-8.95-8.95,8.95-8.96v-67.07Zm-180.58,51.21c-.63,13.72-12.3,24.35-26.02,23.56-13.72-.63-24.14-12.51-23.51-26.02.78-13.72,12.46-24.35,26.18-23.51,13.72.58,24.13,12.46,23.35,25.97Zm18.8,85.55c-7.96,0-14.3-6.33-14.3-14.29s6.34-14.14,14.3-14.14,14.13,6.34,14.13,14.14-6.33,14.29-14.13,14.29Zm38.48-109.11c-7.96.42-14.5-5.71-14.92-13.51-.42-7.75,5.55-14.5,13.3-14.92,8.01-.42,14.55,5.55,14.92,13.51.42,7.8-5.5,14.55-13.3,14.92Zm75.97,105.88l-11.48,5.75v.06l11.48,5.76v2.03l-13.63-7.02v-1.59l13.63-7.02v2.03Zm3.87,14.77h-1.96l8.19-21.29h2l-8.23,21.29Zm23.71-8.16l-13.63,6.99v-2.03l11.57-5.76v-.06l-11.57-5.75v-2.03l13.63,6.99v1.65Z"/>
    <path class="cls-5" d="m254.68,130.89c-13.27-1.34-23.82-12.29-24.69-25.61-1.05-16.04,11.71-29.44,27.54-29.44,13.93,0,25.49,10.39,27.33,23.83h3.3c-1.91-15.77-15.78-27.9-32.23-27.06-15.53.79-28.24,13.34-29.22,28.85-1.12,17.92,13.14,32.86,30.82,32.86,15.75,0,28.77-11.85,30.63-27.11h-3.3c-1.97,14.35-15,25.21-30.18,23.68Z"/>
  </g>
</svg>